<?xml version="1.0" encoding="utf-8"?>
<!-- Generator: Adobe Illustrator 18.0.0, SVG Export Plug-In . SVG Version: 6.00 Build 0)  -->
<!DOCTYPE svg PUBLIC "-//W3C//DTD SVG 1.1//EN" "http://www.w3.org/Graphics/SVG/1.1/DTD/svg11.dtd">
<svg version="1.1" id="Layer_1" xmlns="http://www.w3.org/2000/svg" xmlns:xlink="http://www.w3.org/1999/xlink" x="0px" y="0px"
	 viewBox="0 0 612 792" enable-background="new 0 0 612 792" xml:space="preserve">
<path fill="#2D2D2D" d="M520.4,531.9L349.7,217.3c-23.8-38.6-62.6-38.6-86.4,0L92.5,531.9c-23.8,38.6-6.1,70.2,39.2,70.2h349.4
	C526.5,602.1,544.2,570.5,520.4,531.9z M277,320.1c0-3.2,2.9-6.2,6.2-6.2h45.4c3.2,0,6.2,2.9,6.2,6.2v36.3l-15.9,91.2
	c-0.3,2.6-3.3,5.2-6.2,5.2h-13.6c-2.9,0-5.8-2.6-6.2-5.2L277,357.1V320.1z M305.6,544.3c-16.5,0-30.5-13.9-30.5-30.5
	c0-16.9,14-31.1,30.5-31.1c16.9,0,31.1,14.3,31.1,31.1C336.7,530.3,322.5,544.3,305.6,544.3z"/>
</svg>
