<?xml version="1.0" encoding="utf-8"?>
<!-- Generator: Adobe Illustrator 18.0.0, SVG Export Plug-In . SVG Version: 6.00 Build 0)  -->
<!DOCTYPE svg PUBLIC "-//W3C//DTD SVG 1.1//EN" "http://www.w3.org/Graphics/SVG/1.1/DTD/svg11.dtd">
<svg version="1.1" id="Layer_1" xmlns="http://www.w3.org/2000/svg" xmlns:xlink="http://www.w3.org/1999/xlink" x="0px" y="0px"
	 viewBox="-1144.3 -788.2 1756.3 1429.2" enable-background="new -1144.3 -788.2 1756.3 1429.2" xml:space="preserve">
<path fill="#FFFFFF" d="M334.5,185.8L527-391.5c3.3-9.8,1.6-20.6-4.4-28.9c-6-8.4-15.7-13.3-26-13.3H-673l-61.8-226.8
	c-3.4-14.5-16.4-24.7-31.2-24.7h-224.5c-17.7,0-32.1,14.3-32.1,32.1c0,17.7,14.3,32.1,32.1,32.1h199.1l253.6,930.9
	c-51.1,16.9-88.1,65.1-88.1,121.8c0,70.8,57.5,128.3,128.3,128.3s128.3-57.5,128.3-128.3c0-23.4-6.3-45.3-17.3-64.1H96.9
	c-10.9,18.9-17.3,40.8-17.3,64.1c0,70.8,57.5,128.3,128.3,128.3s128.3-57.5,128.3-128.3c0-70.8-57.5-128.3-128.3-128.3h-680.2
	l-26-95.5h802.4C318,207.7,330.2,198.9,334.5,185.8z M-433.5,431.5c0,35.4-28.8,64.1-64.1,64.1s-64.1-28.8-64.1-64.1
	c0-35.4,28.8-64.1,64.1-64.1S-433.5,396.2-433.5,431.5z M272.1,431.5c0,35.4-28.8,64.1-64.1,64.1s-64.1-28.8-64.1-64.1
	c0-35.4,28.8-64.1,64.1-64.1S272.1,396.2,272.1,431.5z M-515.8,143.6l-139.8-513.2H452.1L281,143.6H-515.8z"/>
</svg>
