<?xml version="1.0" encoding="utf-8"?>
<!-- Generator: Adobe Illustrator 18.0.0, SVG Export Plug-In . SVG Version: 6.00 Build 0)  -->
<!DOCTYPE svg PUBLIC "-//W3C//DTD SVG 1.1//EN" "http://www.w3.org/Graphics/SVG/1.1/DTD/svg11.dtd">
<svg version="1.1" id="Layer_1" xmlns="http://www.w3.org/2000/svg" xmlns:xlink="http://www.w3.org/1999/xlink" x="0px" y="0px"
	 viewBox="0 0 612 792" enable-background="new 0 0 612 792" xml:space="preserve">
<path fill="#FFFFFF" d="M552.8,250l-53-53c-8.4-8.4-22.2-8.4-30.6,0L225.8,440.5l-83.2-83.2c-8.4-8.4-22.2-8.4-30.6,0l-53,53
	c-8.4,8.4-8.4,22.2,0,30.6l133.1,133.1c0.6,0.9-35.6-35.2-34.8-34.4l53,53c4.3,4.3,9.9,6.3,15.5,6.3c5.6,0.1,11.2-2,15.5-6.3l53-53
	c0.8-0.8,1.5-1.6,2.1-2.5l256.4-256.4C561.2,272.2,561.2,258.4,552.8,250z"/>
</svg>
