<?xml version="1.0" encoding="utf-8"?>
<!-- Generator: Adobe Illustrator 18.0.0, SVG Export Plug-In . SVG Version: 6.00 Build 0)  -->
<!DOCTYPE svg PUBLIC "-//W3C//DTD SVG 1.1//EN" "http://www.w3.org/Graphics/SVG/1.1/DTD/svg11.dtd">
<svg version="1.1" id="Layer_1" xmlns="http://www.w3.org/2000/svg" xmlns:xlink="http://www.w3.org/1999/xlink" x="0px" y="0px"
	 viewBox="0 198.2 612 612.1" enable-background="new 0 198.2 612 612.1" xml:space="preserve">
<path fill="#343434" d="M306,810.3C137.1,810.3,0,672.9,0,504s137.1-306,306-306s306,137.3,306,306S474.7,810.3,306,810.3z
	 M306,218.3C148.3,218.3,20.3,346.6,20.3,504S148.6,789.7,306,789.7c157.7,0,285.7-128.3,285.7-285.7S463.4,218.3,306,218.3z"/>
<g>
	<path fill="#343434" d="M149.2,574.9c-8.5-14.8-12.9-26.4-13.2-26.9l19-7.1c0,0,4.1,10.7,11.8,24.2L149.2,574.9z"/>
	<path fill="#343434" d="M234.9,636.7l-1.4-20.3c4.4-0.3,8.8-1.4,13.2-2.7c10.4-3.8,18.7-11.3,25.5-22.5l17.6,10.4
		c-9.1,15.4-21.2,26.1-36,31.3C247.2,635,240.9,636.4,234.9,636.7z M210.4,633.7c-17.6-5.8-34.1-19.5-49.2-40.1l16.5-11.8
		c12.6,17.3,25.8,28.3,39.3,33L210.4,633.7z M298.9,580.9l-19-6.9c6-16.8,9.9-37.1,12.6-54.9l20.1,3.3
		C309.6,540.8,305.7,562.5,298.9,580.9z M315.9,501.5l-20.1-3c2.7-18.7,6-39.8,11-58.5l19.5,5.2
		C321.7,462.8,318.6,483.4,315.9,501.5z M332.4,426.5l-19-7.4c10.2-25,24.7-40.4,44.8-46.7l6,19.2C350.2,396,340.1,407,332.4,426.5z
		 M422.5,414.7c-12.6-15.9-26.4-24.4-40.9-25.3l1.1-20.3c20.6,1.4,39.6,12.4,55.8,33L422.5,414.7z"/>
	<path fill="#343434" d="M444.2,455.4c0,0-3.6-11-11-23.9l17.6-9.9c8.2,14.8,12.4,27.2,12.6,27.7L444.2,455.4z"/>
</g>
<circle fill="#343434" cx="460.6" cy="469.7" r="25.5"/>
<circle fill="#343434" cx="141.5" cy="528.4" r="25.5"/>
</svg>
