<?xml version="1.0" encoding="utf-8"?>
<!-- Generator: Adobe Illustrator 18.0.0, SVG Export Plug-In . SVG Version: 6.00 Build 0)  -->
<!DOCTYPE svg PUBLIC "-//W3C//DTD SVG 1.1//EN" "http://www.w3.org/Graphics/SVG/1.1/DTD/svg11.dtd">
<svg version="1.1" id="Layer_1" xmlns="http://www.w3.org/2000/svg" xmlns:xlink="http://www.w3.org/1999/xlink" x="0px" y="0px"
	 viewBox="0 0 612 1008" enable-background="new 0 0 612 1008" xml:space="preserve">
<path id="instagram-9-icon" fill="#FFFFFF" d="M241.5,519c0-36.4,29.5-65.9,65.9-65.9s65.9,29.5,65.9,65.9s-29.5,65.9-65.9,65.9
	S241.5,555.4,241.5,519z M412.8,519c0,58.2-47.2,105.5-105.4,105.5S202,577.3,202,519c0-9.1,1.3-17.9,3.5-26.4h-29.8v145
	c0,7.3,5.9,13.2,13.2,13.2h237.3c7.3,0,13.2-5.9,13.2-13.2v-145h-29.8C411.5,501.1,412.8,509.9,412.8,519z M426,387.2h-39.5
	c-7.3,0-13.2,5.9-13.2,13.2v39.5c0,7.3,5.9,13.2,13.2,13.2H426c7.3,0,13.2-5.9,13.2-13.2v-39.5C439.2,393.1,433.3,387.2,426,387.2z
	 M611.3,519c0,168.7-136.8,305.4-305.4,305.4S0.4,687.7,0.4,519s136.8-305.4,305.4-305.4S611.3,350.3,611.3,519z M478.7,387.2
	c0-21.8-17.7-39.5-39.5-39.5H175.6c-21.8,0-39.5,17.7-39.5,39.5v263.6c0,21.8,17.7,39.6,39.5,39.6h263.6c21.8,0,39.5-17.7,39.5-39.6
	V387.2L478.7,387.2z"/>
</svg>
