<?xml version="1.0" encoding="utf-8"?>
<!-- Generator: Adobe Illustrator 18.0.0, SVG Export Plug-In . SVG Version: 6.00 Build 0)  -->
<!DOCTYPE svg PUBLIC "-//W3C//DTD SVG 1.1//EN" "http://www.w3.org/Graphics/SVG/1.1/DTD/svg11.dtd">
<svg version="1.1" id="Layer_1" xmlns="http://www.w3.org/2000/svg" xmlns:xlink="http://www.w3.org/1999/xlink" x="0px" y="0px"
	 viewBox="0 0 612 792" enable-background="new 0 0 612 792" xml:space="preserve">
<path id="instagram-9-icon" fill="#343434" d="M255.3,407.8c0-28.6,23.2-51.8,51.8-51.8c28.6,0,51.8,23.2,51.8,51.8
	s-23.2,51.8-51.8,51.8C278.5,459.6,255.3,436.4,255.3,407.8z M389.9,407.8c0,45.7-37.1,82.9-82.8,82.9s-82.8-37.1-82.8-82.9
	c0-7.1,1-14.1,2.8-20.7h-23.4V501c0,5.7,4.6,10.4,10.4,10.4h186.5c5.7,0,10.4-4.6,10.4-10.4V387h-23.4
	C388.9,393.7,389.9,400.6,389.9,407.8z M400.3,304.2h-31c-5.7,0-10.4,4.6-10.4,10.4v31c0,5.7,4.6,10.4,10.4,10.4h31
	c5.7,0,10.4-4.6,10.4-10.4v-31C410.7,308.9,406,304.2,400.3,304.2z M545.9,407.8c0,132.5-107.5,240-240,240s-240-107.4-240-240
	s107.5-240,240-240S545.9,275.2,545.9,407.8z M441.7,304.2c0-17.1-13.9-31-31-31H203.5c-17.1,0-31,13.9-31,31v207.1
	c0,17.1,13.9,31.1,31,31.1h207.1c17.1,0,31-13.9,31-31.1V304.2L441.7,304.2z"/>
</svg>
