<?xml version="1.0" encoding="utf-8"?>
<!-- Generator: Adobe Illustrator 18.0.0, SVG Export Plug-In . SVG Version: 6.00 Build 0)  -->
<!DOCTYPE svg PUBLIC "-//W3C//DTD SVG 1.1//EN" "http://www.w3.org/Graphics/SVG/1.1/DTD/svg11.dtd">
<svg version="1.1" id="Layer_1" xmlns="http://www.w3.org/2000/svg" xmlns:xlink="http://www.w3.org/1999/xlink" x="0px" y="0px"
	 viewBox="0 0 133.7 60.2" enable-background="new 0 0 133.7 60.2" xml:space="preserve">
<g>
	<g>
		<path fill="#FFFFFF" d="M84.4,29v3.7c0,2.5-1.1,4-3.7,4l-5.5-0.2v-20h5.2c2.6,0,3.9,1.2,3.9,3.7v2.9c0,1.8-0.6,2.7-1.8,3.1
			C83.8,26.6,84.4,27.4,84.4,29z M79.9,19.1h-1.5V25h1.4c0.9,0,1.3-0.4,1.3-1.3v-3.4C81.1,19.5,80.7,19.1,79.9,19.1z M78.4,33.8
			l1.6,0c0.8,0,1.2-0.4,1.2-1.2v-3.8c0-0.9-0.4-1.3-1.3-1.3h-1.5V33.8z"/>
	</g>
	<g>
		<path fill="#FFFFFF" d="M93.6,16.3v2.9h-4.1v6h4v2.9h-4v6.3l4.2,0.2v3.1L86,37V16.3H93.6z"/>
	</g>
	<g>
		<path fill="#FFFFFF" d="M106.4,39.2l-3.6-0.5l-0.5-3.7h-3.7l-0.4,3.2L95,37.8l3.2-21.4h4.7L106.4,39.2z M99,32h2.9l-1.4-11L99,32z
			"/>
	</g>
	<g>
		<path fill="#FFFFFF" d="M118.5,32.9v8.5l-3.8-0.8V33c0-1.1-0.5-1.6-1.6-1.6h-1.7V40l-3.8-0.6v-23h6.2c3.1,0,4.6,1.5,4.6,4.6v4.7
			c0,2.2-0.8,3.3-2.1,3.8C117.8,30,118.5,31,118.5,32.9z M113.3,19.8h-1.8V28h1.7c1.1,0,1.5-0.5,1.5-1.5v-5.3
			C114.7,20.3,114.2,19.8,113.3,19.8z"/>
	</g>
	<g>
		<path fill="#FFFFFF" d="M68.9,20c0,0.1,0.1,0.3,0.1,0.3c0,0.7-0.6,1.1-1,1.1c-0.4,0-1.2-0.3-1.2-1.2c0-1,0.9-1.5,1.8-1.5
			c1.8,0,2.9,1.5,2.9,3c0,0.8-0.3,2-1.7,2.8C69,25,68.1,25,67.5,25c0.5,0.7,1.1,1.6,1.1,3.1c0,3-2.5,5.9-7,5.9c-4.7,0-7.2-3.1-7.2-6
			c0-1.3,0.5-3.1,3-4c-0.8-1.2-0.8-2.3-0.8-2.5c0-1.5,1.1-2.9,2.8-2.9c1.4,0,2.4,1.2,2.4,2.2c0,0.3-0.1,0.8-0.1,0.9
			c-0.2-0.5-0.7-1.5-2-1.5c-0.9,0-2.1,0.8-2.1,2.1c0,0.6,0.2,1.1,0.6,1.6c1.2-0.1,1.9,0.5,1.9,1.3c0,0.8-0.6,0.9-0.9,0.9
			c-0.6,0-0.9-0.5-1-0.6c-0.4-0.6-0.5-0.7-0.8-0.7c-0.8,0-1.5,1.2-1.5,2.3c0,0.6,0.4,4.2,6.5,4.2c2,0,2.9-0.3,3.8-1.1
			c0.6-0.5,1.5-1.4,1.5-2.8c0-1.2-0.8-3.1-3.1-3.1c-1.6,0-2.6,1.1-2.6,2.2c0,0.9,0.7,1.6,1.3,1.6c0.1,0,0.4,0,0.4-0.3
			c0-0.1,0-0.1-0.3-0.3c-0.3-0.3-0.3-0.6-0.3-0.7c0-0.3,0.2-1.1,1.2-1.1c1.1,0,1.3,1,1.3,1.4c0,1.3-1.1,1.9-2,1.9
			c-1.2,0-2.4-1.1-2.4-2.8c0-1.4,1-3.4,3.9-3.4c0.4,0,2,0,2.3,0c0.4,0,3,0,3-1.9c0-0.9-0.6-1.6-1.4-1.6c-0.2,0-0.2,0.2-0.2,0.2
			L68.9,20z"/>
	</g>
	<g>
		<path fill="#FFFFFF" d="M24.3,16.4v3.4h-4.5v7h4.4v3.4h-4.4v9.8l-3.8,0.7V16.4H24.3z"/>
	</g>
	<g>
		<path fill="#FFFFFF" d="M33.1,38.1l-1.5,0.2c-3.3,0.3-4.5-1.7-4.5-4.4V20.5c0-2.7,1.4-4.1,4.3-4.1h1.9c2.8,0,4.3,1.4,4.3,4.1v13
			C37.4,36.3,36.3,37.7,33.1,38.1z M32.6,19.4h-0.7c-0.9,0-1.3,0.4-1.3,1.3V34c0,0.9,0.4,1.2,1.3,1.2l0.9-0.1
			c0.9-0.1,1.2-0.5,1.2-1.4v-13C33.9,19.8,33.5,19.4,32.6,19.4z"/>
	</g>
	<g>
		<path fill="#FFFFFF" d="M47.5,26.6l3.3,10.1l-3.7,0.2l-2.1-7.3l-2.3,7.6l-3.7,0.3l3.6-10.6l-3.3-10.1l3.8,0l2,7.1l2.1-7.1l3.5,0
			L47.5,26.6z"/>
	</g>
	<path fill="#FFFFFF" d="M126.8,51.7H7.8V9.5h118.9V51.7z M9.4,50.2h115.9V11H9.4V50.2z"/>
	<path fill="#FFFFFF" d="M129.3,54.4H5.2V6.8h124.1V54.4z M5.6,54H129V7.2H5.6V54z"/>
	<g>
		<path fill="#FFFFFF" d="M45.9,40.7c0.7,0,1.2,0.2,1.7,0.7c0.1,0.1,0.1,0.1,0,0.2l-0.3,0.3c-0.1,0.1-0.1,0.1-0.2,0
			c-0.3-0.3-0.8-0.5-1.2-0.5c-1,0-1.8,0.9-1.8,1.9c0,1,0.8,1.9,1.8,1.9c0.5,0,0.9-0.2,1.2-0.5c0.1-0.1,0.1,0,0.2,0l0.3,0.3
			c0.1,0,0,0.1,0,0.2c-0.5,0.5-1.1,0.7-1.7,0.7c-1.4,0-2.6-1.1-2.6-2.6C43.3,41.8,44.4,40.7,45.9,40.7z"/>
		<path fill="#FFFFFF" d="M52.3,40.7c1.4,0,2.6,1.2,2.6,2.6c0,1.4-1.1,2.6-2.6,2.6c-1.4,0-2.6-1.1-2.6-2.6
			C49.7,41.8,50.8,40.7,52.3,40.7z M52.3,45.1c1,0,1.9-0.8,1.9-1.9c0-1-0.8-1.9-1.9-1.9c-1,0-1.9,0.9-1.9,1.9
			C50.4,44.3,51.2,45.1,52.3,45.1z"/>
		<path fill="#FFFFFF" d="M57.9,40.8c0-0.1,0.1-0.1,0.1-0.1h0.1c0,0,0.1,0,0.1,0.1l1.5,3.7h0l1.5-3.7c0,0,0.1-0.1,0.1-0.1h0.1
			c0.1,0,0.1,0.1,0.1,0.1l0.9,4.8c0,0.1,0,0.2-0.1,0.2h-0.5c-0.1,0-0.1-0.1-0.1-0.1l-0.5-3.2c0,0,0,0,0,0l-1.3,3.3
			c0,0-0.1,0.1-0.1,0.1h-0.1c-0.1,0-0.1,0-0.1-0.1l-1.3-3.3h0l-0.5,3.2c0,0.1-0.1,0.1-0.1,0.1h-0.5c-0.1,0-0.2-0.1-0.1-0.2
			L57.9,40.8z"/>
		<path fill="#FFFFFF" d="M65,40.9c0-0.1,0.1-0.1,0.1-0.1h1.6c0.9,0,1.6,0.7,1.6,1.6c0,0.9-0.7,1.6-1.6,1.6h-1v1.7
			c0,0.1-0.1,0.1-0.1,0.1h-0.5c-0.1,0-0.1-0.1-0.1-0.1V40.9z M66.7,43.3c0.5,0,0.9-0.4,0.9-0.9c0-0.5-0.4-0.9-0.9-0.9h-1v1.8H66.7z"
			/>
		<path fill="#FFFFFF" d="M69.8,45.6l2.2-4.8c0,0,0.1-0.1,0.1-0.1h0.1c0,0,0.1,0,0.1,0.1l2.2,4.8c0,0.1,0,0.2-0.1,0.2h-0.5
			c-0.1,0-0.1,0-0.2-0.1l-0.4-1h-2.3c-0.1,0.3-0.3,0.7-0.4,1c0,0.1-0.1,0.1-0.2,0.1h-0.5C69.8,45.8,69.7,45.7,69.8,45.6z M73,44.1
			l-0.9-2h0l-0.9,2H73z"/>
		<path fill="#FFFFFF" d="M76.6,40.8c0-0.1,0.1-0.1,0.1-0.1h0.2l3.1,3.6h0v-3.4c0-0.1,0.1-0.1,0.1-0.1h0.5c0.1,0,0.1,0.1,0.1,0.1
			v4.8c0,0.1-0.1,0.1-0.1,0.1h-0.2l-3.1-3.7h0v3.5c0,0.1-0.1,0.1-0.1,0.1h-0.5c-0.1,0-0.1-0.1-0.1-0.1V40.8z"/>
		<path fill="#FFFFFF" d="M84.6,43.4L82.9,41c-0.1-0.1,0-0.2,0.1-0.2h0.5c0.1,0,0.1,0,0.1,0.1l1.3,1.8l1.3-1.8c0,0,0.1-0.1,0.1-0.1
			h0.5c0.1,0,0.2,0.1,0.1,0.2l-1.7,2.4v2.3c0,0.1-0.1,0.1-0.1,0.1h-0.5c-0.1,0-0.1-0.1-0.1-0.1V43.4z"/>
	</g>
</g>
</svg>
