<?xml version="1.0" encoding="utf-8"?>
<!-- Generator: Adobe Illustrator 18.0.0, SVG Export Plug-In . SVG Version: 6.00 Build 0)  -->
<!DOCTYPE svg PUBLIC "-//W3C//DTD SVG 1.1//EN" "http://www.w3.org/Graphics/SVG/1.1/DTD/svg11.dtd">
<svg version="1.1" id="Layer_1" xmlns="http://www.w3.org/2000/svg" xmlns:xlink="http://www.w3.org/1999/xlink" x="0px" y="0px"
	 viewBox="0 198.2 612 611.8" enable-background="new 0 198.2 612 611.8" xml:space="preserve">
<path fill="#343434" d="M306,810C137.3,810,0,672.7,0,504s137.3-306,306-306s306,137.3,306,306S474.7,810,306,810z M306,218.3
	C148.3,218.3,20.3,346.6,20.3,504c0,157.7,128.3,285.7,285.7,285.7S591.7,661.4,591.7,504S463.7,218.3,306,218.3z"/>
<path id="mouse-8-icon" fill="#343434" d="M218.6,485.6c5.2-25.8-6-44.8-13.5-61.8c-13.5-29.9,23.9-48.6,43.1-21.4
	c2.5,3.6,20.3,28.3,20.3,28.3l15.7-11c0,0-17.9-25-20.3-28.6c-24.2-33.8-68.4-23.9-78.6,7.1c-10.4,31.9,21.7,49.7,14.8,83.2
	c-3.3,15.9-23.6,27.2-44.2,13.5l-10.7,15.9C177.4,532.8,212.9,514.2,218.6,485.6z M319.7,415.6L253.5,462
	c-16.2,11.3-20.1,33.5-8.8,49.7l76.4,109.1c24.2,34.3,71.4,42.9,106,18.7c34.3-24.2,42.9-71.7,18.7-106l-76.4-109.1
	C358.2,408.1,335.9,404.3,319.7,415.6z M352.4,436.2l23.1,33.2L337.3,496l-31.6-45.3l25.8-18.1C338.4,427.9,347.8,429.6,352.4,436.2
	z M265.3,479l25.8-18.1l31.9,45.3l-37.9,26.6L262,499.6C257.1,493,258.8,483.7,265.3,479z M415.1,622.4
	c-25,17.6-59.3,11.5-76.9-13.7l-43.7-62.4l90.6-63.5l43.7,62.4C446.4,570.5,440.3,605.1,415.1,622.4z"/>
</svg>
