<?xml version="1.0" encoding="utf-8"?>
<!-- Generator: Adobe Illustrator 18.0.0, SVG Export Plug-In . SVG Version: 6.00 Build 0)  -->
<!DOCTYPE svg PUBLIC "-//W3C//DTD SVG 1.1//EN" "http://www.w3.org/Graphics/SVG/1.1/DTD/svg11.dtd">
<svg version="1.1" id="Layer_1" xmlns="http://www.w3.org/2000/svg" xmlns:xlink="http://www.w3.org/1999/xlink" x="0px" y="0px"
	 viewBox="0 197.7 612 612" enable-background="new 0 197.7 612 612" xml:space="preserve">
<path fill="#343434" d="M306.3,809.7c-168.7,0-306-137.3-306-306s137.3-306,306-306s306,137.3,306,306S474.9,809.7,306.3,809.7z
	 M306.3,218.1c-157.7,0-285.7,128.3-285.7,285.7s128.3,285.7,285.7,285.7c157.7,0,285.7-128.3,285.7-285.7S463.9,218.1,306.3,218.1z
	"/>
<path id="shipping-box-2-icon" fill="#343434" d="M295.6,357.9L177.4,426v142.3l148.1,86.3l117.8-68.7V443.6L295.6,357.9z
	 M412,450.4l-32.4,17.9l-114.8-67.8l30.5-17.6L412,450.4z M314,622.7l-115.1-67V450.4L314,517.2V622.7z M325.2,498.8L210.1,432
	l33.2-19.2l114.5,67.8L325.2,498.8z M421.6,573.2l-86.3,50.3V517.7l86.3-47.8V573.2L421.6,573.2z"/>
</svg>
