<?xml version="1.0" encoding="utf-8"?>
<!-- Generator: Adobe Illustrator 18.0.0, SVG Export Plug-In . SVG Version: 6.00 Build 0)  -->
<!DOCTYPE svg PUBLIC "-//W3C//DTD SVG 1.1//EN" "http://www.w3.org/Graphics/SVG/1.1/DTD/svg11.dtd">
<svg version="1.1" id="Layer_1" xmlns="http://www.w3.org/2000/svg" xmlns:xlink="http://www.w3.org/1999/xlink" x="0px" y="0px"
	 viewBox="0 0 612 792" enable-background="new 0 0 612 792" xml:space="preserve">
<path id="twitter-4-icon" fill="#343434" d="M306,155.6C173.1,155.6,65.6,263.1,65.6,396S173.1,636.4,306,636.4
	S546.4,528.9,546.4,396S438.9,155.6,306,155.6z M426.5,354.7c3.5,78.6-55.1,166-158.5,166c-31.7,0-60.7-9-85.4-24.8
	c29.6,3.5,59.2-4.8,82.7-23.4c-24.1-0.7-44.8-16.5-52.3-38.6c9,1.4,17.2,1.4,25.5-0.7c-26.9-5.5-45.5-29.6-44.8-55.1
	c7.5,4.2,15.9,6.9,25.5,6.9c-24.8-16.5-31.7-49.6-17.2-74.4c27.6,33.8,68.9,55.8,115,58.5c-8.2-35.1,18.6-68.2,54.5-68.2
	c15.9,0,30.3,6.9,40.6,17.9c12.4-2.8,24.8-6.9,35.1-13.8c-4.2,13.1-13.1,24.1-24.8,31c11-1.4,22.1-4.2,31.7-9
	C447.2,336.8,437.6,346.4,426.5,354.7z"/>
</svg>
