<?xml version="1.0" encoding="utf-8"?>
<!-- Generator: Adobe Illustrator 18.0.0, SVG Export Plug-In . SVG Version: 6.00 Build 0)  -->
<!DOCTYPE svg PUBLIC "-//W3C//DTD SVG 1.1//EN" "http://www.w3.org/Graphics/SVG/1.1/DTD/svg11.dtd">
<svg version="1.1" id="Layer_1" xmlns="http://www.w3.org/2000/svg" xmlns:xlink="http://www.w3.org/1999/xlink" x="0px" y="0px"
	 viewBox="0 0 612 1008" enable-background="new 0 0 612 1008" xml:space="preserve">
<path id="twitter-4-icon" fill="#FFFFFF" d="M306,198C136.8,198,0,334.8,0,504s136.8,306,306,306s306-136.8,306-306
	S475.2,198,306,198z M459.4,451.4c4.4,100-70.1,211.3-201.7,211.3c-40.3,0-77.2-11.4-108.7-31.6c37.7,4.4,75.4-6.1,105.2-29.8
	c-30.7-0.9-57-21-66.6-49.1c11.4,1.8,21.9,1.8,32.4-0.9c-34.2-7-57.9-37.7-57-70.1c9.6,5.3,20.2,8.8,32.4,8.8
	c-31.6-21-40.3-63.1-21.9-94.7c35.1,43,87.7,71,146.4,74.5c-10.5-44.7,23.7-86.8,69.3-86.8c20.2,0,38.6,8.8,51.7,22.8
	c15.8-3.5,31.6-8.8,44.7-17.5c-5.3,16.7-16.7,30.7-31.6,39.5c14-1.8,28.1-5.3,40.3-11.4C485.7,428.6,473.5,440.9,459.4,451.4z"/>
</svg>
