<?xml version="1.0" encoding="utf-8"?>
<!-- Generator: Adobe Illustrator 18.0.0, SVG Export Plug-In . SVG Version: 6.00 Build 0)  -->
<!DOCTYPE svg PUBLIC "-//W3C//DTD SVG 1.1//EN" "http://www.w3.org/Graphics/SVG/1.1/DTD/svg11.dtd">
<svg version="1.1" id="Layer_1" xmlns="http://www.w3.org/2000/svg" xmlns:xlink="http://www.w3.org/1999/xlink" x="0px" y="0px"
	 viewBox="0 0 512 512" enable-background="new 0 0 512 512" xml:space="preserve">
<path id="instagram-circle-icon" fill="#FFFFFF" d="M353.9,166.1v25.3c0,4.1-3.3,7.3-7.4,7.3h-24.8c-4.1,0-7.4-3.3-7.4-7.3v-25.3
	c0-4.1,3.3-7.4,7.4-7.4h24.8C350.6,158.7,353.9,162,353.9,166.1z M259,290.8c18.6,0,33.8-15.1,33.8-33.8c0-18.6-15.1-33.8-33.8-33.8
	s-33.8,15.1-33.8,33.8C225.2,275.7,240.4,290.8,259,290.8z M462,256c0,113.8-92.2,206-206,206S50,369.8,50,256S142.2,50,256,50
	S462,142.2,462,256z M374.8,222.7h-67.7c6.9,9.7,11,21.5,11,34.3c0,32.7-26.5,59.3-59.3,59.3c-32.7,0-59.3-26.5-59.3-59.3
	c0-12.8,4.1-24.6,11-34.3h-67.4v103.9c0,25.3,20.5,45.8,45.8,45.8h140c25.3,0,45.8-20.5,45.8-45.8V222.7z M258.9,302.7
	c25.2,0,45.7-20.5,45.7-45.7c0-13.7-6-25.9-15.6-34.3c-3.4-2.9-7.1-5.4-11.2-7.3c-5.7-2.6-12.1-4.1-18.8-4.1
	c-6.7,0-13.1,1.5-18.8,4.1c-4.1,1.9-7.9,4.3-11.2,7.3c-9.5,8.4-15.6,20.7-15.6,34.3C213.2,282.2,233.7,302.7,258.9,302.7z
	 M374.8,185.4c0-25.3-20.5-45.8-45.8-45.8H203.8v57.8h-9.4v-57.8H189c-0.4,0-0.7,0-1.1,0v57.7h-9.4v-56.6c-2.3,0.5-4.5,1.2-6.6,2.1
	v54.5h-9.4V148c-11.7,8.3-19.4,21.9-19.4,37.4v30.1h73.5c10.8-10.9,25.7-17.7,42.2-17.7c16.5,0,31.5,6.8,42.2,17.7h73.8L374.8,185.4
	L374.8,185.4z"/>
</svg>
