<?xml version="1.0" encoding="utf-8"?>
<!-- Generator: Adobe Illustrator 18.0.0, SVG Export Plug-In . SVG Version: 6.00 Build 0)  -->
<!DOCTYPE svg PUBLIC "-//W3C//DTD SVG 1.1//EN" "http://www.w3.org/Graphics/SVG/1.1/DTD/svg11.dtd">
<svg version="1.1" id="Layer_1" xmlns="http://www.w3.org/2000/svg" xmlns:xlink="http://www.w3.org/1999/xlink" x="0px" y="0px"
	 viewBox="-47.2 0 706.4 792" enable-background="new -47.2 0 706.4 792" xml:space="preserve">
<path fill="#231F20" d="M-42.7,255.7c0-33.9,24-75.5,53.4-92.4L252.8,23.5c29.3-16.9,77.4-16.9,106.7,0l242.2,139.8
	c29.3,16.9,53.4,58.5,53.4,92.4v279.6c0,33.9-24,75.5-53.4,92.4L359.5,767.5c-29.3,16.9-77.4,16.9-106.7,0L10.6,627.7
	c-29.3-16.9-53.4-58.5-53.4-92.4V255.7z"/>
<g>
	<g>
		<path fill="#FFFFFF" d="M107.2,400h6c7.2,0,8.3-2.1,8.7-11.9h4.7v29.5h-4.7c-0.4-10.8-1.5-13-8.7-13h-6v19.7
			c0,2.9,1.3,4.6,4.1,4.6h7v4.7h-31v-4.7h6.9c2.8,0,4.1-1.7,4.1-4.6v-41.6c0-3-1.2-4.7-4.2-4.7h-6.7v-4.7H144v23.8h-4.7
			c0-15.4-4.4-19.1-15.1-19.1h-16.9V400z"/>
		<path fill="#FFFFFF" d="M274.7,403.7c0,16-10.7,32-32.9,32c-22.3,0-32.9-16-32.9-32c0-16,10.7-32.1,32.9-32.1
			C264,371.6,274.7,387.6,274.7,403.7z M218.6,403.7c0,13.9,6.7,27.1,23.2,27.1c16.5,0,23.2-13.2,23.2-27.1
			c0-13.9-6.7-27.2-23.2-27.2C225.3,376.5,218.6,389.8,218.6,403.7z"/>
		<path fill="#FFFFFF" d="M328.6,433.9v-4.7h2.5c3.6,0,6.8-1.9,9.7-5.3l16.5-19.7l-14.9-19.6c-2.8-3.7-4.9-6.4-9.8-6.4h-2.9v-4.7
			h29.1v4.7h-6.3c-1.2,0-2.3,0.5-2.3,1.7c0,0.9,0.7,2,1.5,2.9l11,14.4l12-14.4c0.7-0.9,1.5-2,1.5-2.9c0-1.3-1.2-1.7-2.4-1.7h-6.1
			v-4.7h26.2v4.7H390c-4.8,0-6.8,2.7-9.8,6.4l-13.9,17.4l17,22.2c2.3,2.9,5,4.9,9.4,4.9h3.6v4.7h-31.5v-4.7h5.8
			c2.2,0,3.3-0.8,3.3-2.3c0-1.3-1.6-3.2-2.4-4.2l-10.8-13.9l-11.2,13.9c-0.8,1-3.2,3.2-3.2,4.5c0,1.5,1.9,2,4.1,2h5.1v4.7H328.6z"/>
		<path fill="#FFFFFF" d="M531.8,397.6v4.7h-2.7c-3.8,0-5.1,0.9-7.8,4.7L509,424c2.4,3.4,4.9,5.8,9.6,5.8c6.9,0,8.5-8.1,8.5-13.9
			h4.7c0,10.8-3.2,19.7-15.7,19.7c-4.9,0-9.5-2.2-13.1-5.4c-4.9,3.9-11.5,5.4-17.7,5.4c-11.7,0-21-5.9-21-18.5
			c0-10.9,8.9-14.3,16.4-18.8c-2.5-3.6-4-7.9-4-12.2c0-8.8,6-14.6,14.7-14.6c7.2,0,12.9,5,12.9,12.3c0,7.1-6.7,12.4-13.2,16.3
			c4.5,7,8.8,14.4,14.6,20.3l3.2-4c1.6-2.1,5.5-6.8,5.5-9.6c0-4-2.8-4.6-6.1-4.6h-3.1v-4.7H531.8z M487.4,429.9
			c3.7,0,8.5-1.5,11.6-3.6c-6.2-6.8-11.3-14.6-16-22.5c-5.1,2.7-9.9,6.1-9.9,12.5C473.2,424.7,479,429.9,487.4,429.9z M491.4,376.5
			c-4.6,0-6.8,4.1-6.8,8.8c0,3.1,2.1,7.3,3.8,9.8c4.5-2.7,9.2-5.9,9.2-11.7C497.6,379.7,495.1,376.5,491.4,376.5z"/>
	</g>
	<g>
		<path fill="#FFFFFF" d="M82.9,459.4c0-1.6,1.3-3.1,3.1-3.1h37.4c19.4,0,34.4,13.1,34.4,30.2c0,12.6-10.3,22.4-18,26
			c8.7,2.8,21.2,11.6,21.2,26.6c0,18.3-15.7,31.5-35.6,31.5H86c-1.8,0-3.1-1.5-3.1-3.1V459.4z M121.4,504.3c8.3,0,14-6.5,14-14.7
			c0-8.2-5.7-13.9-14-13.9h-17.5v28.6H121.4z M123.7,551.3c8.2,0,14.7-6.4,14.7-14.9c0-8.2-8.2-14.2-16.6-14.2h-17.8v29.1H123.7z"/>
		<path fill="#FFFFFF" d="M206.5,459.4c0-1.6,1.3-3.1,3.1-3.1H276c1.8,0,3.1,1.5,3.1,3.1v13.4c0,1.6-1.3,3.1-3.1,3.1h-48.3v26.8H268
			c1.6,0,3.1,1.5,3.1,3.1v13.5c0,1.8-1.5,3.1-3.1,3.1h-40.3V551H276c1.8,0,3.1,1.5,3.1,3.1v13.4c0,1.6-1.3,3.1-3.1,3.1h-66.4
			c-1.8,0-3.1-1.5-3.1-3.1V459.4z"/>
		<path fill="#FFFFFF" d="M310.4,566.3l50.8-109.9c0.5-1,1.3-1.8,2.8-1.8h1.6c1.6,0,2.3,0.8,2.8,1.8l50.3,109.9
			c1,2.1-0.3,4.2-2.8,4.2h-14.2c-2.5,0-3.6-1-4.7-3.3l-8-17.6h-48.8l-8,17.6c-0.6,1.6-2.1,3.3-4.7,3.3h-14.2
			C310.8,570.5,309.5,568.4,310.4,566.3z M381,531.5l-16.3-35.9h-0.5l-16,35.9H381z"/>
		<path fill="#FFFFFF" d="M456.4,459.4c0-1.6,1.3-3.1,3.1-3.1h46.7c19.6,0,35.6,15.7,35.6,35.1c0,15-10,27.3-24.2,33l22.4,41.5
			c1.1,2.1,0,4.7-2.8,4.7H520c-1.5,0-2.3-0.8-2.6-1.5l-21.7-43.3h-18.1v41.6c0,1.6-1.5,3.1-3.1,3.1h-15c-1.8,0-3.1-1.5-3.1-3.1
			V459.4z M504.4,508.4c8.6,0,16.2-7.5,16.2-16.6c0-8.7-7.5-15.8-16.2-15.8h-26.6v32.5H504.4z"/>
	</g>
</g>
<g>
	<path fill="#FFFFFF" d="M297.2,204v-33.8l-40.9-29.3l-3.5,1.8l-48.4-37.5l13,55.8l-6,3.1l0.2,0.1l0,0l7.3,15.1l-8.7,70.9l68.3,52.4
		l9.8,20.3h9.9L297.2,204L297.2,204z M292.3,296l-7,7.6l-1.8-3.7l0.3-0.4l-0.8-0.6l-12.6-26l21.2-57.5L292.3,296z M291.6,173.1v22.1
		l-67.3-31.4l31.6-16.3L291.6,173.1z M237.3,150.7l-16.9-26.1l27,20.9L237.3,150.7z M215.4,127.3l16.8,26l-9.6,5L215.4,127.3z
		 M290.8,201.1L267,265.8l-47.4-98L290.8,201.1z M216.2,247.6l7.2-59L273,291.2L216.2,247.6z M291.8,317.1l-3.9-8.1l4.5-4.8l0.1,13
		H291.8z"/>
	<polygon fill="#FFFFFF" points="266.8,222 252.6,223.8 273.5,232.1 	"/>
	<path fill="#FFFFFF" d="M419.3,229.5l-19.5-52l-4.2-3.4l6.6-28.2l-17.7-12L364,148.3l-2.2-1.8l-18.7-0.3l-33.9,25.5l0,0.1h-0.1
		v149.2h17.2l36-57.4L419.3,229.5z M366.8,254.4l30.5-67.8l15.1,40.4L366.8,254.4z M390.9,170.1l-17-13.8l16.4-11.8l5.7,3.9
		L390.9,170.1z M384.7,140.7l0.6,0.4l-15.9,11.5l-0.8-0.7L384.7,140.7z M345,151.9l14.8,0.2l34.3,27.9l-33.7,75l-43.8-81.7
		L345,151.9z M314.8,261.5l16,17.4L317.4,298h-2.6V261.5z M323.3,315.3h-8.5v-11.6h5.5l17.8-25.2l-23.3-25.2v-71.1l42.4,79.2
		L323.3,315.3z"/>
	<polygon fill="#FFFFFF" points="359,218.1 349.7,229.5 371.9,218.7 	"/>
</g>
<g id="XD3FKW_1_">
	<g>
		<path fill="#FFFFFF" d="M295.7,637.6c2.5-3,3.9-7.5,9.3-5.3c-1.6,7.6-3.2,15.4-4.9,23.4c-1.9,0-3.8,0-5.9,0
			c-0.1-1.9-0.1-3.9-0.4-5.8c-2.1-11.4-13.5-16.4-23.5-9.9c-3.1,2-6,5-8,8.2c-5.6,8.8-8,18.7-7.2,29c0.8,10.8,7.7,15.5,19,12.7
			c8.8-2.2,13.5-9,16.5-17.1l6.6,0c-5.1,18.1-20.8,28.2-39.5,23.6c-8.6-2.1-13.2-8.3-14.4-16.8c-2.6-18.6,8.3-39,24-46.4
			C277.8,628.2,286.7,629.5,295.7,637.6z"/>
		<path fill="#FFFFFF" d="M306.3,678.3c0.3-14.7,9.4-27,22.6-30.4c14.4-3.7,25,5.8,23.1,20.6c-1.7,13.3-8.3,22.9-21.4,26.9
			c-4,1.2-8.7,1.2-12.9,0.4C310.2,694.4,306.2,687.6,306.3,678.3z M341.7,665.1c0.1-9.1-3.7-13.1-10.6-11.7
			c-2.4,0.5-5.1,1.9-6.6,3.8c-6.3,7.6-8.6,16.6-7.5,26.3c0.7,6.4,5.6,9.3,11.6,6.7c2.9-1.3,5.7-3.9,7.6-6.6
			C340.1,677.9,341.2,671.1,341.7,665.1z"/>
		<path fill="#FFFFFF" d="M365.2,688.9c0.1,3.8-3.7,7.6-7.6,7.7c-2.9,0-5.2-2.2-5.2-5.1c0-3.8,3.7-7.5,7.7-7.6
			C363.1,683.7,365.1,685.7,365.2,688.9z"/>
	</g>
</g>
<rect x="78.8" y="603.3" fill="#FFFFFF" width="454.8" height="1.8"/>
</svg>
