<?xml version="1.0" encoding="utf-8"?>
<!-- Generator: Adobe Illustrator 16.2.1, SVG Export Plug-In . SVG Version: 6.00 Build 0)  -->
<!DOCTYPE svg PUBLIC "-//W3C//DTD SVG 1.1//EN" "http://www.w3.org/Graphics/SVG/1.1/DTD/svg11.dtd">
<svg version="1.1" id="Layer_1" xmlns="http://www.w3.org/2000/svg" xmlns:xlink="http://www.w3.org/1999/xlink" x="0px" y="0px"
	 width="250px" height="250px" viewBox="-373.795 334.008 250 250" enable-background="new -373.795 334.008 250 250"
	 xml:space="preserve">
<path d="M-360.796,414.181c0-10.875,7.706-24.223,17.125-29.661l77.707-44.861c9.419-5.438,24.834-5.438,34.25,0l77.707,44.863
	c9.418,5.438,17.125,18.786,17.125,29.661v89.73c0,10.875-7.707,24.223-17.125,29.661l-77.707,44.863
	c-9.42,5.438-24.833,5.438-34.25,0l-77.707-44.865c-9.419-5.438-17.125-18.785-17.125-29.661V414.181z"/>
<g>
	<g>
		<path fill="#FFFFFF" d="M-320.018,430.152h2.09c2.501,0,2.881-0.729,3.008-4.115h1.645v10.256h-1.645
			c-0.125-3.766-0.507-4.495-3.008-4.495h-2.09v6.838c0,1.012,0.447,1.614,1.423,1.614h2.439v1.646h-10.762v-1.646h2.407
			c0.983,0,1.423-0.603,1.423-1.614v-14.436c0-1.042-0.412-1.645-1.453-1.645h-2.344v-1.647h19.625v8.261h-1.647
			c0-5.349-1.521-6.613-5.254-6.613h-5.855v7.597H-320.018z"/>
		<path fill="#FFFFFF" d="M-261.899,431.42c0,5.569-3.704,11.107-11.424,11.107c-7.727,0-11.427-5.538-11.427-11.107
			c0-5.571,3.7-11.143,11.427-11.143C-265.603,420.276-261.899,425.849-261.899,431.42z M-281.367,431.42
			c0,4.811,2.31,9.398,8.042,9.398c5.727,0,8.037-4.588,8.037-9.398c0-4.812-2.31-9.436-8.037-9.436
			C-279.058,421.985-281.367,426.608-281.367,431.42z"/>
		<path fill="#FFFFFF" d="M-243.189,441.896v-1.646h0.855c1.267,0,2.373-0.664,3.354-1.839l5.728-6.834l-5.156-6.805
			c-0.981-1.298-1.711-2.217-3.387-2.217h-1.014v-1.647h10.094v1.647h-2.182c-0.413,0-0.792,0.158-0.792,0.601
			c0,0.316,0.255,0.698,0.51,1.014l3.825,4.999l4.15-4.999c0.255-0.317,0.506-0.697,0.506-1.014c0-0.442-0.413-0.601-0.822-0.601
			h-2.119v-1.647h9.084v1.647h-1.331c-1.676,0-2.375,0.949-3.387,2.217l-4.841,6.044l5.884,7.723
			c0.792,1.014,1.742,1.711,3.26,1.711h1.238v1.646h-10.917v-1.646h2.022c0.759,0,1.139-0.286,1.139-0.792
			c0-0.442-0.568-1.106-0.823-1.456l-3.764-4.811l-3.897,4.811c-0.286,0.35-1.104,1.108-1.104,1.553
			c0,0.504,0.661,0.697,1.421,0.697h1.772v1.646h-9.308V441.896z"/>
		<path fill="#FFFFFF" d="M-174.817,429.298v1.646h-0.921c-1.329,0-1.771,0.316-2.719,1.645l-4.243,5.886
			c0.823,1.171,1.711,2.026,3.323,2.026c2.406,0,2.945-2.817,2.945-4.812h1.646c0,3.766-1.112,6.836-5.446,6.836
			c-1.707,0-3.291-0.759-4.559-1.865c-1.705,1.359-3.986,1.865-6.139,1.865c-4.051,0-7.28-2.057-7.28-6.425
			c0-3.766,3.102-4.971,5.697-6.521c-0.854-1.233-1.39-2.753-1.39-4.24c0-3.039,2.089-5.065,5.094-5.065
			c2.504,0,4.464,1.74,4.464,4.273c0,2.47-2.344,4.305-4.588,5.666c1.548,2.438,3.04,5.002,5.063,7.059l1.108-1.393
			c0.568-0.729,1.9-2.375,1.9-3.325c0-1.395-0.983-1.612-2.12-1.612h-1.078v-1.646h9.242V429.298z M-190.201,440.502
			c1.298,0,2.941-0.539,4.017-1.267c-2.151-2.374-3.924-5.065-5.538-7.817c-1.773,0.946-3.418,2.12-3.418,4.333
			C-195.14,438.73-193.113,440.502-190.201,440.502z M-188.841,421.985c-1.582,0-2.371,1.426-2.371,3.04
			c0,1.075,0.728,2.533,1.329,3.418c1.551-0.946,3.196-2.055,3.196-4.05C-186.688,423.095-187.542,421.985-188.841,421.985z"/>
	</g>
	<g>
		<path fill="#FFFFFF" d="M-328.473,450.752c0-0.567,0.453-1.075,1.075-1.075h12.974c6.743,0,11.956,4.532,11.956,10.479
			c0,4.362-3.572,7.763-6.231,9.009c3.006,0.962,7.363,4.022,7.363,9.234c0,6.344-5.44,10.932-12.348,10.932h-13.712
			c-0.621,0-1.075-0.51-1.075-1.075v-37.504H-328.473z M-315.104,466.33c2.889,0,4.872-2.266,4.872-5.1
			c0-2.833-1.983-4.814-4.872-4.814h-6.062v9.914H-315.104z M-314.311,482.646c2.835,0,5.098-2.209,5.098-5.154
			c0-2.832-2.832-4.928-5.778-4.928h-6.175v10.084h6.855V482.646z"/>
		<path fill="#FFFFFF" d="M-285.581,450.752c0-0.567,0.453-1.075,1.076-1.075h23.055c0.623,0,1.078,0.508,1.078,1.075v4.646
			c0,0.567-0.453,1.077-1.078,1.077h-16.767v9.289h13.992c0.565,0,1.077,0.51,1.077,1.077v4.7c0,0.622-0.512,1.075-1.077,1.075
			h-13.992v9.915h16.767c0.623,0,1.078,0.51,1.078,1.075v4.645c0,0.567-0.453,1.075-1.078,1.075h-23.055
			c-0.623,0-1.076-0.51-1.076-1.075V450.752z"/>
		<path fill="#FFFFFF" d="M-249.489,487.858l17.619-38.127c0.172-0.34,0.452-0.624,0.962-0.624h0.568
			c0.562,0,0.793,0.286,0.959,0.624l17.451,38.127c0.338,0.738-0.116,1.472-0.965,1.472h-4.924c-0.855,0-1.251-0.34-1.646-1.132
			l-2.773-6.119h-16.941l-2.775,6.119c-0.224,0.566-0.738,1.132-1.642,1.132h-4.931
			C-249.374,489.329-249.827,488.596-249.489,487.858z M-225.014,475.792l-5.662-12.463h-0.174l-5.552,12.463H-225.014z"/>
		<path fill="#FFFFFF" d="M-198.836,450.752c0-0.567,0.452-1.075,1.076-1.075h16.204c6.795,0,12.348,5.438,12.348,12.179
			c0,5.212-3.453,9.463-8.381,11.443l7.761,14.391c0.396,0.738,0,1.644-0.963,1.644h-5.95c-0.512,0-0.796-0.284-0.906-0.512
			l-7.535-15.013h-6.292v14.447c0,0.567-0.51,1.075-1.076,1.075h-5.212c-0.622,0-1.078-0.51-1.078-1.075v-37.504H-198.836z
			 M-182.179,467.747c3.001,0,5.608-2.604,5.608-5.779c0-3.003-2.607-5.494-5.608-5.494h-9.238v11.273H-182.179z"/>
	</g>
	<rect x="-328.242" y="499.02" fill="#FFFFFF" width="157.841" height="0.344"/>
	<g>
		<path fill="#FFFFFF" d="M-260.179,513.028c3.1,0,5.395,0.962,7.503,2.883c0.278,0.247,0.278,0.622,0.029,0.869l-2.417,2.513
			c-0.22,0.216-0.558,0.216-0.775,0c-1.147-1.023-2.668-1.58-4.187-1.58c-3.502,0-6.074,2.912-6.074,6.385
			c0,3.44,2.604,6.295,6.106,6.295c1.457,0,3.04-0.529,4.157-1.488c0.215-0.186,0.617-0.186,0.802,0.03l2.422,2.572
			c0.215,0.219,0.187,0.62-0.034,0.84c-2.104,2.045-4.773,3.007-7.532,3.007c-6.205,0-11.195-4.93-11.195-11.131
			C-271.375,518.022-266.384,513.028-260.179,513.028z"/>
		<path fill="#FFFFFF" d="M-240.625,522.329c3.538,0,6.452,2.977,6.452,6.481c0,3.564-2.914,6.542-6.452,6.542
			c-3.534,0-6.446-2.976-6.446-6.542C-247.071,525.306-244.159,522.329-240.625,522.329z M-240.625,531.352
			c1.361,0,2.447-1.146,2.447-2.541c0-1.365-1.085-2.481-2.447-2.481c-1.363,0-2.447,1.116-2.447,2.481
			C-243.072,530.206-241.988,531.352-240.625,531.352z"/>
		<path fill="#FFFFFF" d="M-225.377,529.461c1.614,0,2.978,1.363,2.978,2.976c0,1.582-1.361,2.916-2.978,2.916
			c-1.58,0-2.912-1.334-2.912-2.916C-228.285,530.824-226.953,529.461-225.377,529.461z"/>
	</g>
</g>
<g>
	<path fill="#FFFFFF" d="M-250.236,382.048v-6.828l-8.246-5.921l-0.702,0.363l-9.767-7.57l2.618,11.261l-1.21,0.623l0.031,0.016
		l-0.01,0.004l1.477,3.051l-1.748,14.3l13.78,10.573l1.979,4.09h1.989l-0.205-23.971L-250.236,382.048z M-251.229,400.602
		l-1.418,1.535l-0.366-0.755l0.06-0.079l-0.154-0.12l-2.542-5.25l4.279-11.61L-251.229,400.602z M-251.374,375.805v4.461
		l-13.591-6.338l6.385-3.299L-251.374,375.805z M-262.331,371.288l-3.413-5.272l5.445,4.222L-262.331,371.288z M-266.746,366.561
		l3.399,5.251l-1.944,1.004L-266.746,366.561z M-251.517,381.451l-4.817,13.063l-9.562-19.767L-251.517,381.451z M-266.583,390.846
		l1.451-11.903l10.016,20.701L-266.583,390.846z M-251.32,404.877l-0.792-1.638l0.9-0.975l0.022,2.612H-251.32z"/>
	<polygon fill="#FFFFFF" points="-256.38,385.686 -259.248,386.041 -255.012,387.71 	"/>
	<path fill="#FFFFFF" d="M-225.588,387.183l-3.926-10.487l-0.842-0.684l1.34-5.691l-3.581-2.43l-4.159,2.916l-0.442-0.358
		l-3.764-0.062l-6.833,5.148l0.005,0.012h-0.023v30.1h3.479l7.276-11.592L-225.588,387.183z M-236.195,392.211l6.155-13.678
		l3.055,8.161L-236.195,392.211z M-231.336,375.212l-3.426-2.785l3.306-2.391l1.155,0.782L-231.336,375.212z M-232.586,369.268
		l0.125,0.087l-3.217,2.329l-0.162-0.133L-232.586,369.268z M-240.588,371.53l2.981,0.048l6.917,5.63l-6.807,15.142l-8.833-16.492
		L-240.588,371.53z M-246.677,393.646l3.241,3.515l-2.719,3.862h-0.521V393.646z M-244.96,404.507h-1.717v-2.349h1.112l3.583-5.094
		l-4.695-5.097v-14.35l8.562,15.987L-244.96,404.507z"/>
	<polygon fill="#FFFFFF" points="-237.775,384.889 -239.644,387.193 -235.158,385.012 	"/>
</g>
</svg>
