<?xml version="1.0" encoding="utf-8"?>
<!-- Generator: Adobe Illustrator 18.0.0, SVG Export Plug-In . SVG Version: 6.00 Build 0)  -->
<!DOCTYPE svg PUBLIC "-//W3C//DTD SVG 1.1//EN" "http://www.w3.org/Graphics/SVG/1.1/DTD/svg11.dtd">
<svg version="1.1" id="Layer_1" xmlns="http://www.w3.org/2000/svg" xmlns:xlink="http://www.w3.org/1999/xlink" x="0px" y="0px"
	 viewBox="0 0 612 792" enable-background="new 0 0 612 792" xml:space="preserve">
<path fill="#231F20" d="M3.8,273.5c0-29.3,20.8-65.3,46.2-80l209.5-121c25.4-14.7,67-14.7,92.4,0l209.5,121
	c25.4,14.7,46.2,50.7,46.2,80v242c0,29.3-20.8,65.3-46.2,80l-209.5,121c-25.4,14.7-67,14.7-92.4,0L50,595.5
	c-25.4-14.7-46.2-50.7-46.2-80V273.5z"/>
<g>
	<path fill="#FFFFFF" d="M288.3,381.2v-57.9l-70-50.2l-6,3.1l-82.9-64.2l22.2,95.5l-10.3,5.3l0.3,0.1l-0.1,0l12.5,25.9l-14.8,121.3
		l116.9,89.7l16.8,34.7l16.9,0l-1.7-203.4L288.3,381.2z M279.9,538.6l-12,13l-3.1-6.4l0.5-0.7l-1.3-1L242.4,499l36.3-98.5
		L279.9,538.6z M278.7,328.2V366l-115.3-53.8l54.2-28L278.7,328.2z M185.7,289.9l-29-44.7L203,281L185.7,289.9z M148.3,249.8
		l28.8,44.5l-16.5,8.5L148.3,249.8z M277.5,376.1l-40.9,110.8l-81.1-167.7L277.5,376.1z M149.6,455.8l12.3-101l85,175.6L149.6,455.8
		z M279.1,574.8l-6.8-13.9l7.7-8.3l0.2,22.2H279.1z"/>
	<polygon fill="#FFFFFF" points="236.2,412 211.9,415 247.8,429.2 	"/>
	<path fill="#FFFFFF" d="M497.5,424.7l-33.3-89l-7.2-5.8l11.4-48.3L438,261l-35.3,24.8l-3.7-3.1l-32-0.5l-57.9,43.7l0,0.1h-0.2
		v255.4h29.5l61.7-98.3L497.5,424.7z M407.4,467.4l52.2-116l26,69.2L407.4,467.4z M448.7,323.2l-29-23.6l28-20.3l9.8,6.6
		L448.7,323.2z M438.1,272.7l1.1,0.7l-27.3,19.7l-1.4-1.1L438.1,272.7z M370.2,291.9l25.3,0.4l58.7,47.7l-57.8,128.5l-74.9-139.9
		L370.2,291.9z M318.5,479.6l27.5,29.8l-23.1,32.8h-4.4V479.6z M333.1,571.7h-14.6v-19.9h9.4l30.4-43.2l-39.8-43.2V343.6l72.6,135.6
		L333.1,571.7z"/>
	<polygon fill="#FFFFFF" points="394.1,405.2 378.2,424.8 416.3,406.3 	"/>
</g>
</svg>
