<?xml version="1.0" encoding="utf-8"?>
<!-- Generator: Adobe Illustrator 18.0.0, SVG Export Plug-In . SVG Version: 6.00 Build 0)  -->
<!DOCTYPE svg PUBLIC "-//W3C//DTD SVG 1.1//EN" "http://www.w3.org/Graphics/SVG/1.1/DTD/svg11.dtd">
<svg version="1.1" id="Layer_1" xmlns="http://www.w3.org/2000/svg" xmlns:xlink="http://www.w3.org/1999/xlink" x="0px" y="0px"
	 viewBox="0 0 612 792" enable-background="new 0 0 612 792" xml:space="preserve">
<path fill="#FFFFFF" d="M544.2,253.9H73.8c-23.5,0-42.8-19.2-42.8-42.8v0c0-23.5,19.2-42.8,42.8-42.8h470.3
	c23.5,0,42.8,19.2,42.8,42.8v0C586.9,234.6,567.7,253.9,544.2,253.9z"/>
<path fill="#FFFFFF" d="M544.2,417.8H73.8c-23.5,0-42.8-19.2-42.8-42.8v0c0-23.5,19.2-42.8,42.8-42.8h470.3
	c23.5,0,42.8,19.2,42.8,42.8v0C586.9,398.5,567.7,417.8,544.2,417.8z"/>
<path fill="#FFFFFF" d="M544.2,581.6H73.8c-23.5,0-42.8-19.2-42.8-42.8v0c0-23.5,19.2-42.8,42.8-42.8h470.3
	c23.5,0,42.8,19.2,42.8,42.8v0C586.9,562.4,567.7,581.6,544.2,581.6z"/>
</svg>
